HIERARCHY
ROOT Hips
{
	OFFSET 0.000000 121.760803 0.000000
	CHANNELS 6 Xposition Yposition Zposition Xrotation Yrotation Zrotation 
	JOINT Spine
	{
		OFFSET 0.072000 7.257294 -0.789700
		CHANNELS 3 Xrotation Yrotation Zrotation
		JOINT Spine1
		{
			OFFSET 0.000000 12.508769 -0.658067
			CHANNELS 3 Xrotation Yrotation Zrotation
			JOINT Spine1_split
			{
				OFFSET 0.000000 12.508769 -0.658067
				CHANNELS 3 Xrotation Yrotation Zrotation
				JOINT Spine2
				{
					OFFSET 0.000000 12.508769 -0.658067
					CHANNELS 3 Xrotation Yrotation Zrotation
					JOINT Neck
					{
						OFFSET 0.000000 14.033295 7.520400
						CHANNELS 3 Xrotation Yrotation Zrotation
						JOINT Head
						{
							OFFSET 0.000000 8.198502 5.703100
							CHANNELS 3 Xrotation Yrotation Zrotation
							JOINT HeadTop_End
							{
								OFFSET 0.000000 17.760803 13.332701
								CHANNELS 3 Xrotation Yrotation Zrotation
								End Site
								{
									OFFSET 0.000000 0.000000 0.000000
								}
							}
						}
					}
					JOINT LeftShoulder
					{
						OFFSET 6.292450 5.785301 -0.669000
						CHANNELS 3 Xrotation Yrotation Zrotation
						JOINT LeftShoulder_split
						{
							OFFSET 6.292450 5.785301 -0.669000
							CHANNELS 3 Xrotation Yrotation Zrotation
							JOINT LeftArm
							{
								OFFSET 13.907140 -6.093903 1.965100
								CHANNELS 3 Xrotation Yrotation Zrotation
								JOINT LeftForeArm
								{
									OFFSET 34.140198 0.000000 0.000000
									CHANNELS 3 Xrotation Yrotation Zrotation
									JOINT LeftHand
									{
										OFFSET 40.960209 0.000000 0.000000
										CHANNELS 3 Xrotation Yrotation Zrotation
										JOINT LeftHandThumb1
										{
											OFFSET 10.006996 -7.170425 9.573125
											CHANNELS 3 Xrotation Yrotation Zrotation
											JOINT LeftHandThumb2
											{
												OFFSET 1.835007 -1.059448 1.059443
												CHANNELS 3 Xrotation Yrotation Zrotation
												JOINT LeftHandThumb3
												{
													OFFSET 2.112267 -1.219513 1.219518
													CHANNELS 3 Xrotation Yrotation Zrotation
													JOINT LeftHandThumb4
													{
														OFFSET 4.843811 -2.796570 2.796576
														CHANNELS 3 Xrotation Yrotation Zrotation
														End Site
														{
															OFFSET 0.000000 0.000000 0.000000
														}
													}
												}
											}
										}
										JOINT LeftHandIndex1
										{
											OFFSET 18.389847 -0.922348 4.596882
											CHANNELS 3 Xrotation Yrotation Zrotation
											JOINT LeftHandIndex2
											{
												OFFSET 4.711273 0.000000 0.000000
												CHANNELS 3 Xrotation Yrotation Zrotation
												JOINT LeftHandIndex3
												{
													OFFSET 2.886131 0.000000 0.000000
													CHANNELS 3 Xrotation Yrotation Zrotation
													JOINT LeftHandIndex4
													{
														OFFSET 6.145912 0.000000 0.000000
														CHANNELS 3 Xrotation Yrotation Zrotation
														End Site
														{
															OFFSET 0.000000 0.000000 0.000000
														}
													}
												}
											}
										}
										JOINT LeftHandMiddle1
										{
											OFFSET 18.013008 0.000000 0.000000
											CHANNELS 3 Xrotation Yrotation Zrotation
											JOINT LeftHandMiddle2
											{
												OFFSET 4.946693 0.000000 0.000000
												CHANNELS 3 Xrotation Yrotation Zrotation
												JOINT LeftHandMiddle3
												{
													OFFSET 3.342232 0.000000 0.000000
													CHANNELS 3 Xrotation Yrotation Zrotation
													JOINT LeftHandMiddle4
													{
														OFFSET 4.461754 0.000000 0.000000
														CHANNELS 3 Xrotation Yrotation Zrotation
														End Site
														{
															OFFSET 0.000000 0.000000 0.000000
														}
													}
												}
											}
										}
										JOINT LeftHandRing1
										{
											OFFSET 15.849892 -0.102921 -4.126150
											CHANNELS 3 Xrotation Yrotation Zrotation
											JOINT LeftHandRing2
											{
												OFFSET 3.527054 0.000000 0.000000
												CHANNELS 3 Xrotation Yrotation Zrotation
												JOINT LeftHandRing3
												{
													OFFSET 2.961098 0.000000 0.000000
													CHANNELS 3 Xrotation Yrotation Zrotation
													JOINT LeftHandRing4
													{
														OFFSET 4.927200 0.000000 0.000000
														CHANNELS 3 Xrotation Yrotation Zrotation
														End Site
														{
															OFFSET 0.000000 0.000000 0.000000
														}
													}
												}
											}
										}
										JOINT LeftHandPinky1
										{
											OFFSET 12.791824 -0.832031 -6.799156
											CHANNELS 3 Xrotation Yrotation Zrotation
											JOINT LeftHandPinky2
											{
												OFFSET 3.327133 0.000000 0.000000
												CHANNELS 3 Xrotation Yrotation Zrotation
												JOINT LeftHandPinky3
												{
													OFFSET 3.014900 0.000000 0.000000
													CHANNELS 3 Xrotation Yrotation Zrotation
													JOINT LeftHandPinky4
													{
														OFFSET 5.847786 0.000000 0.000000
														CHANNELS 3 Xrotation Yrotation Zrotation
														End Site
														{
															OFFSET 0.000000 0.000000 0.000000
														}
													}
												}
											}
										}
									}
								}
							}
						}
					}
					JOINT RightShoulder
					{
						OFFSET -6.292450 5.785301 -0.669000
						CHANNELS 3 Xrotation Yrotation Zrotation
						JOINT RightShoulder_split
						{
							OFFSET -6.292450 5.785301 -0.669000
							CHANNELS 3 Xrotation Yrotation Zrotation
							JOINT RightArm
							{
								OFFSET -13.907140 -6.093903 1.965100
								CHANNELS 3 Xrotation Yrotation Zrotation
								JOINT RightForeArm
								{
									OFFSET -34.140198 0.000000 0.000000
									CHANNELS 3 Xrotation Yrotation Zrotation
									JOINT RightHand
									{
										OFFSET -40.960209 0.000000 0.000000
										CHANNELS 3 Xrotation Yrotation Zrotation
										JOINT RightHandThumb1
										{
											OFFSET -10.007050 -7.170456 9.573117
											CHANNELS 3 Xrotation Yrotation Zrotation
											JOINT RightHandThumb2
											{
												OFFSET -1.835007 -1.059448 1.059443
												CHANNELS 3 Xrotation Yrotation Zrotation
												JOINT RightHandThumb3
												{
													OFFSET -2.112267 -1.219513 1.219518
													CHANNELS 3 Xrotation Yrotation Zrotation
													JOINT RightHandThumb4
													{
														OFFSET -4.843834 -2.796585 2.796590
														CHANNELS 3 Xrotation Yrotation Zrotation
														End Site
														{
															OFFSET 0.000000 0.000000 0.000000
														}
													}
												}
											}
										}
										JOINT RightHandIndex1
										{
											OFFSET -18.389870 -0.922424 4.596786
											CHANNELS 3 Xrotation Yrotation Zrotation
											JOINT RightHandIndex2
											{
												OFFSET -4.711273 0.000000 0.000000
												CHANNELS 3 Xrotation Yrotation Zrotation
												JOINT RightHandIndex3
												{
													OFFSET -2.886131 0.000000 0.000000
													CHANNELS 3 Xrotation Yrotation Zrotation
													JOINT RightHandIndex4
													{
														OFFSET -6.145920 0.000000 0.000000
														CHANNELS 3 Xrotation Yrotation Zrotation
														End Site
														{
															OFFSET 0.000000 0.000000 0.000000
														}
													}
												}
											}
										}
										JOINT RightHandMiddle1
										{
											OFFSET -18.013008 0.000000 0.000000
											CHANNELS 3 Xrotation Yrotation Zrotation
											JOINT RightHandMiddle2
											{
												OFFSET -4.946693 0.000000 0.000000
												CHANNELS 3 Xrotation Yrotation Zrotation
												JOINT RightHandMiddle3
												{
													OFFSET -3.342232 0.000000 0.000000
													CHANNELS 3 Xrotation Yrotation Zrotation
													JOINT RightHandMiddle4
													{
														OFFSET -4.461754 0.000000 0.000000
														CHANNELS 3 Xrotation Yrotation Zrotation
														End Site
														{
															OFFSET 0.000000 0.000000 0.000000
														}
													}
												}
											}
										}
										JOINT RightHandRing1
										{
											OFFSET -15.849876 -0.102936 -4.126237
											CHANNELS 3 Xrotation Yrotation Zrotation
											JOINT RightHandRing2
											{
												OFFSET -3.527054 0.000000 0.000000
												CHANNELS 3 Xrotation Yrotation Zrotation
												JOINT RightHandRing3
												{
													OFFSET -2.961098 0.000000 0.000000
													CHANNELS 3 Xrotation Yrotation Zrotation
													JOINT RightHandRing4
													{
														OFFSET -4.927200 0.000000 0.000000
														CHANNELS 3 Xrotation Yrotation Zrotation
														End Site
														{
															OFFSET 0.000000 0.000000 0.000000
														}
													}
												}
											}
										}
										JOINT RightHandPinky1
										{
											OFFSET -12.791786 -0.832077 -6.799222
											CHANNELS 3 Xrotation Yrotation Zrotation
											JOINT RightHandPinky2
											{
												OFFSET -3.327133 0.000000 0.000000
												CHANNELS 3 Xrotation Yrotation Zrotation
												JOINT RightHandPinky3
												{
													OFFSET -3.014900 0.000000 0.000000
													CHANNELS 3 Xrotation Yrotation Zrotation
													JOINT RightHandPinky4
													{
														OFFSET -5.847786 0.000000 0.000000
														CHANNELS 3 Xrotation Yrotation Zrotation
														End Site
														{
															OFFSET 0.000000 0.000000 0.000000
														}
													}
												}
											}
										}
									}
								}
							}
						}
					}
				}
			}
		}
	}
	JOINT LeftUpLeg
	{
		OFFSET 13.026900 -6.336304 -1.092800
		CHANNELS 3 Xrotation Yrotation Zrotation
		JOINT LeftLeg
		{
			OFFSET 0.524474 -46.096886 9.782700
			CHANNELS 3 Xrotation Yrotation Zrotation
			JOINT LeftFoot
			{
				OFFSET -0.524474 -53.427422 -12.948200
				CHANNELS 3 Xrotation Yrotation Zrotation
				JOINT LeftToeBase
				{
					OFFSET 0.192200 -14.009700 16.364100
					CHANNELS 3 Xrotation Yrotation Zrotation
					JOINT LeftToe_End
					{
						OFFSET -1.784700 -0.561700 9.474800
						CHANNELS 3 Xrotation Yrotation Zrotation
						End Site
						{
							OFFSET 0.000000 0.000000 0.000000
						}
					}
				}
			}
		}
	}
	JOINT RightUpLeg
	{
		OFFSET -12.883000 -6.336304 -1.092800
		CHANNELS 3 Xrotation Yrotation Zrotation
		JOINT RightLeg
		{
			OFFSET -0.524587 -46.096825 9.782800
			CHANNELS 3 Xrotation Yrotation Zrotation
			JOINT RightFoot
			{
				OFFSET 0.524587 -53.427383 -12.948300
				CHANNELS 3 Xrotation Yrotation Zrotation
				JOINT RightToeBase
				{
					OFFSET -0.192200 -14.009700 16.364100
					CHANNELS 3 Xrotation Yrotation Zrotation
					JOINT RightToe_End
					{
						OFFSET 1.784700 -0.561700 9.474800
						CHANNELS 3 Xrotation Yrotation Zrotation
						End Site
						{
							OFFSET 0.000000 0.000000 0.000000
						}
					}
				}
			}
		}
	}
}
MOTION
Frames: 4
Frame Time: 0.016667
-1.111082 101.148094 0.434391 3.032230 -58.328497 6.707846 11.191913 0.157694 -2.923545 8.434584 0.027705 -5.592321 0.000000 0.000000 0.000000 8.457057 0.027855 -5.591867 -21.555642 25.063376 12.062565 -0.294042 25.465759 -3.208975 0.000000 -0.000000 -0.000001 -6.221670 -11.503850 -4.023830 0.000000 0.000000 0.000000 -23.062175 9.568549 -36.639607 0.046113 -43.169128 -0.011155 22.743746 -5.685858 15.979287 -1.064239 -7.954922 8.490078 2.373410 19.986097 -2.038339 0.808200 1.237786 2.631747 0.000000 -0.000000 0.000004 13.340878 -1.006680 10.682260 -0.167584 0.303386 -31.105621 -0.143402 0.303639 -32.256279 -0.000001 0.000000 -0.000001 8.495446 -0.329582 -0.915304 0.231512 0.661203 -29.901878 0.444096 0.213437 -44.357011 -0.000001 -0.000001 -0.000001 6.111747 3.150896 -16.210967 0.047074 0.322394 -30.125468 0.408807 0.818961 -42.140659 -0.000001 0.000001 -0.000001 -5.636016 7.709848 -13.878610 0.224372 0.276602 -46.588375 0.261240 0.249382 -46.286836 0.000001 -0.000000 -0.000001 -5.488241 10.658267 2.466538 0.000000 0.000000 0.000000 -41.473800 -26.755596 30.079071 24.955437 111.862987 -23.308447 -8.702508 12.423031 -9.801974 0.265015 10.061111 -10.888491 1.383810 -17.412881 3.016288 3.342353 -13.253730 -8.262746 -0.000001 0.000000 0.000001 19.443604 11.174437 -13.340209 -0.118647 -0.322721 18.035599 -0.089900 -0.286614 23.256589 -0.000000 -0.000001 -0.000001 4.320477 2.436945 -4.811734 0.349142 -0.461255 26.890332 0.467468 0.154069 39.044845 -0.000000 0.000001 0.000001 -7.005636 -10.695135 5.719834 0.111853 -0.089211 26.155894 0.451299 -0.473548 33.265050 0.000002 -0.000001 -0.000000 -19.433517 -20.238202 5.987870 0.223765 -0.085820 36.844547 0.260795 -0.047502 36.471708 -0.000000 0.000001 -0.000000 -36.059089 9.362594 25.457770 41.736738 -7.562043 -9.727455 -7.261665 -2.456344 -9.620543 -0.327614 1.238433 0.837254 0.000000 0.000002 0.000000 -33.213820 -7.744968 -26.045036 46.183875 2.600946 -7.371292 -16.831823 2.997432 21.175178 -0.322766 -0.997424 -0.837127 0.000000 0.000002 0.000000 
-1.147964 101.068169 0.531369 2.493135 -58.326073 6.165365 11.181529 0.149721 -2.892292 8.413348 0.007694 -5.542166 0.000000 0.000000 0.000000 8.435800 0.007773 -5.541680 -21.652145 24.945120 12.088956 0.094812 25.159313 -2.954654 0.000000 0.000000 -0.000001 -6.261263 -11.506435 -4.015211 0.000000 0.000000 0.000000 -22.811111 9.698551 -36.516616 0.794433 -43.624125 0.229707 22.724106 -5.775167 15.786087 -1.337175 -8.592345 8.462111 2.372307 19.986657 -2.038331 0.808502 1.237326 2.632232 0.000000 -0.000000 0.000001 13.509674 -1.097530 9.424771 -0.159040 0.305427 -31.104060 -0.127817 0.288304 -32.095954 -0.000002 0.000000 -0.000001 8.477593 -0.230326 -1.799015 0.234809 0.664022 -29.734337 0.440511 0.219786 -44.354029 0.000001 0.000000 -0.000001 6.088939 3.437394 -16.790620 0.051251 0.330245 -29.912086 0.415132 0.821431 -42.143285 0.000000 -0.000002 -0.000000 -5.699336 8.273532 -13.976719 0.209852 0.283965 -46.588498 0.281001 0.247118 -46.027067 -0.000000 0.000000 0.000003 -5.513955 10.443160 2.326543 0.000000 0.000000 0.000000 -40.253488 -26.263781 30.874303 22.710890 111.299442 -21.321795 -8.758527 12.223517 -9.454593 -0.163838 10.339077 -11.464028 1.370522 -17.420143 3.013299 3.335275 -13.256173 -8.261518 -0.000003 -0.000000 -0.000000 19.534071 10.739044 -14.196807 -0.102111 -0.326666 17.430834 -0.085085 -0.287753 22.639642 -0.000000 -0.000001 -0.000000 4.417739 2.218607 -5.481775 0.352844 -0.461288 26.461886 0.458121 0.156526 38.606350 -0.000002 -0.000002 -0.000001 -6.982951 -10.920047 5.218396 0.085188 -0.090078 25.880150 0.452408 -0.467626 32.988038 -0.000001 -0.000001 0.000000 -19.427696 -20.205252 5.922303 0.228614 -0.095108 36.799553 0.257320 -0.056641 36.449240 -0.000002 -0.000002 -0.000001 -35.880896 9.296809 25.502618 41.997665 -7.633649 -9.645020 -7.430080 -2.406784 -9.622304 -0.327774 1.244792 0.837250 -0.000000 0.000001 -0.000000 -33.161067 -8.196060 -26.489109 46.336386 3.233115 -6.981669 -16.921754 3.090813 20.744879 -0.338896 -0.991445 -0.881460 -0.000000 0.000001 0.000000 
-1.299853 100.830490 0.799751 1.771223 -58.273214 5.433529 11.142460 0.127631 -2.806392 8.334207 -0.045755 -5.404248 0.000000 0.000000 0.000000 8.356670 -0.045664 -5.403788 -21.836682 24.626034 12.153086 0.665321 24.715292 -2.781586 -0.000000 -0.000000 0.000001 -6.328835 -11.488493 -3.983634 0.000000 0.000000 0.000000 -22.131666 10.073043 -36.144043 2.769420 -44.886893 0.926436 22.664446 -6.014888 15.253921 -1.443752 -9.455547 7.932156 2.372318 19.986670 -2.038381 0.808462 1.237287 2.632260 0.000000 0.000000 -0.000000 13.845177 -1.532810 7.580816 -0.159346 0.304549 -30.882878 -0.127903 0.288156 -32.056882 0.000002 -0.000000 -0.000001 8.524446 -0.343997 -3.219833 0.234621 0.663865 -29.653007 0.440521 0.219786 -44.354026 -0.000001 0.000001 0.000000 6.136545 3.595744 -17.915506 0.051096 0.329948 -29.853609 0.415455 0.821301 -42.230237 0.000001 0.000000 0.000002 -5.678633 8.863567 -14.718651 0.209877 0.283886 -46.588522 0.280893 0.247138 -45.993947 0.000000 0.000001 0.000003 -5.548068 9.866000 1.937132 0.000000 0.000000 0.000000 -37.030533 -24.874086 32.856929 15.981635 109.909157 -15.220781 -8.898756 11.688160 -8.523737 -1.286784 11.106069 -12.958746 1.370517 -17.420136 3.013320 3.335239 -13.256157 -8.261536 -0.000001 -0.000003 0.000001 19.732821 9.623673 -16.324693 -0.104575 -0.322138 15.920314 -0.092174 -0.285223 21.097350 0.000001 -0.000003 -0.000003 4.635091 1.638521 -7.128997 0.347180 -0.458701 25.403418 0.460873 0.154125 37.520893 -0.000004 0.000001 -0.000000 -6.943926 -11.513877 4.011797 0.085698 -0.087023 25.221630 0.446239 -0.473901 32.326353 0.000001 0.000000 0.000000 -19.419940 -20.160451 5.828245 0.228549 -0.095026 36.736524 0.257352 -0.056662 36.444346 0.000001 -0.000002 -0.000001 -35.712583 9.137267 25.630170 42.630448 -7.820297 -9.633025 -7.870288 -2.341283 -9.556701 -0.327769 1.244757 0.837247 -0.000000 -0.000000 -0.000000 -32.956756 -8.591075 -26.949807 46.687594 3.780858 -6.707414 -17.218892 3.100558 20.563698 -0.356252 -0.991267 -0.912632 0.000000 0.000001 -0.000000 
-1.547637 100.523163 1.189658 0.922580 -58.165351 4.565351 11.077222 0.093159 -2.681385 8.202125 -0.124048 -5.198302 0.000000 0.000000 0.000000 8.224617 -0.123945 -5.197832 -22.026525 24.153033 12.233261 1.675685 24.083961 -2.871053 -0.000001 0.000001 0.000000 -6.417281 -11.419016 -3.918486 0.000000 0.000000 0.000000 -21.132143 10.674333 -35.524470 5.610376 -46.795491 2.096807 22.562471 -6.361020 14.453076 -1.492397 -10.414545 7.157432 2.372322 19.986682 -2.038320 0.808474 1.237294 2.632231 0.000001 -0.000000 0.000000 14.236170 -2.165276 5.410901 -0.159327 0.304527 -30.877137 -0.127870 0.288242 -32.084417 -0.000005 -0.000000 0.000000 8.587915 -0.569235 -4.948589 0.234563 0.663850 -29.620218 0.439358 0.220335 -44.070590 -0.000002 -0.000000 0.000001 6.219787 3.684101 -19.350752 0.051121 0.329972 -29.860238 0.415850 0.821149 -42.343734 0.000001 0.000001 0.000003 -5.600359 9.470237 -15.793796 0.209862 0.283955 -46.588546 0.281075 0.247128 -46.045935 0.000000 -0.000001 -0.000004 -5.599950 9.021877 1.345359 0.000000 0.000000 0.000000 -32.495107 -22.695880 35.348141 4.343900 108.342134 -4.332180 -9.075132 10.910053 -7.177481 -2.857434 12.259151 -15.019038 1.370524 -17.420175 3.013338 3.335208 -13.256171 -8.261571 0.000001 0.000001 -0.000001 19.872225 8.134579 -19.053714 -0.107673 -0.316131 13.960268 -0.101250 -0.281477 19.092885 0.000000 -0.000000 -0.000001 4.859960 0.812327 -9.209667 0.340111 -0.454424 24.055615 0.461383 0.148726 36.133859 0.000001 -0.000000 0.000001 -6.928776 -12.352435 2.546292 0.086278 -0.083357 24.433229 0.438747 -0.481217 31.533539 0.000002 -0.000002 0.000001 -19.409220 -20.187473 5.864949 0.228619 -0.095085 36.763736 0.257325 -0.056718 36.551337 0.000000 -0.000001 0.000003 -35.523172 9.005552 25.872273 43.409646 -8.185228 -9.732752 -8.453252 -2.276753 -9.372311 -0.327748 1.244753 0.837245 -0.000000 0.000004 0.000000 -32.561158 -8.939873 -27.351195 47.094066 4.169705 -6.556895 -17.634345 3.051233 20.563779 -0.395379 -0.990256 -0.981210 -0.000000 0.000001 0.000000 
